<svg width="18" height="18" viewBox="0 0 18 18" fill="none" xmlns="http://www.w3.org/2000/svg">
<path d="M12.5729 11.8016C13.0928 11.5223 13.6879 11.3633 14.3217 11.3633H14.3239C14.3883 11.3633 14.4184 11.2859 14.3711 11.243C13.712 10.6515 12.9591 10.1737 12.1432 9.8293C12.1346 9.825 12.126 9.82285 12.1174 9.81855C13.4516 8.84961 14.3196 7.2748 14.3196 5.49805C14.3196 2.55469 11.9391 0.169922 9.0022 0.169922C6.06529 0.169922 3.68697 2.55469 3.68697 5.49805C3.68697 7.2748 4.55494 8.84961 5.89126 9.81855C5.88267 9.82285 5.87408 9.825 5.86548 9.8293C4.90513 10.2354 4.04361 10.8176 3.3024 11.5609C2.56547 12.2965 1.97877 13.1685 1.57505 14.1283C1.17784 15.0682 0.963461 16.0752 0.943413 17.0953C0.94284 17.1182 0.946862 17.1411 0.955242 17.1624C0.963622 17.1838 0.976192 17.2032 0.992209 17.2196C1.00823 17.2361 1.02737 17.2491 1.04851 17.258C1.06964 17.2669 1.09235 17.2715 1.11529 17.2715H2.4022C2.49458 17.2715 2.57193 17.1963 2.57408 17.1039C2.61705 15.4453 3.28091 13.892 4.45611 12.7146C5.66998 11.4965 7.2856 10.8262 9.00435 10.8262C10.2225 10.8262 11.3913 11.1635 12.3989 11.7951C12.4248 11.8114 12.4545 11.8205 12.485 11.8217C12.5156 11.8228 12.5459 11.8159 12.5729 11.8016ZM9.00435 9.19336C8.02037 9.19336 7.09439 8.80879 6.39615 8.11055C6.0526 7.76789 5.78025 7.36065 5.59478 6.91227C5.40931 6.4639 5.31439 5.98326 5.31548 5.49805C5.31548 4.51191 5.70005 3.58379 6.39615 2.88555C7.09224 2.1873 8.01822 1.80273 9.00435 1.80273C9.99048 1.80273 10.9143 2.1873 11.6126 2.88555C11.9561 3.2282 12.2285 3.63545 12.4139 4.08382C12.5994 4.53219 12.6943 5.01283 12.6932 5.49805C12.6932 6.48418 12.3086 7.4123 11.6126 8.11055C10.9143 8.80879 9.98834 9.19336 9.00435 9.19336ZM16.9063 14.3066H15.1016V12.502C15.1016 12.4074 15.0243 12.3301 14.9297 12.3301H13.7266C13.6321 12.3301 13.5547 12.4074 13.5547 12.502V14.3066H11.7501C11.6555 14.3066 11.5782 14.384 11.5782 14.4785V15.6816C11.5782 15.7762 11.6555 15.8535 11.7501 15.8535H13.5547V17.6582C13.5547 17.7527 13.6321 17.8301 13.7266 17.8301H14.9297C15.0243 17.8301 15.1016 17.7527 15.1016 17.6582V15.8535H16.9063C17.0008 15.8535 17.0782 15.7762 17.0782 15.6816V14.4785C17.0782 14.384 17.0008 14.3066 16.9063 14.3066Z" fill="white"/>
</svg>
