<svg width="21" height="23" viewBox="0 0 21 23" fill="none" xmlns="http://www.w3.org/2000/svg">
<path d="M21 2.87314V20.1217C21.0038 20.8797 20.704 21.6082 20.1664 22.147C19.6288 22.6857 18.8975 22.9907 18.1332 22.9947C18.0144 22.9956 17.8957 22.9892 17.7777 22.9756C17.0644 22.8706 16.4143 22.5107 15.9499 21.9636C15.4855 21.4164 15.2386 20.7198 15.2559 20.0048V2.99005C15.2388 2.27433 15.4863 1.57713 15.9517 1.0299C16.4171 0.482668 17.0683 0.123212 17.7825 0.0192994C18.1877 -0.0276367 18.5983 0.0112737 18.9872 0.133458C19.3761 0.255642 19.7344 0.458315 20.0385 0.728078C20.3425 0.99784 20.5854 1.32854 20.7509 1.69832C20.9165 2.0681 21.0011 2.46854 20.999 2.87314H21ZM2.9252 17.3024C2.54361 17.2954 2.16444 17.364 1.80986 17.504C1.45528 17.6441 1.13239 17.8528 0.860053 18.118C0.587717 18.3832 0.371395 18.6996 0.223726 19.0486C0.0760563 19.3977 0 19.7724 0 20.151C0 20.5295 0.0760563 20.9042 0.223726 21.2533C0.371395 21.6023 0.587717 21.9187 0.860053 22.1839C1.13239 22.4491 1.45528 22.6578 1.80986 22.7979C2.16444 22.9379 2.54361 23.0065 2.9252 22.9995C3.67779 22.9858 4.39489 22.6797 4.92224 22.147C5.44959 21.6143 5.74504 20.8975 5.74504 20.151C5.74504 19.4044 5.44959 18.6876 4.92224 18.1549C4.39489 17.6222 3.67779 17.3161 2.9252 17.3024ZM10.5312 8.66803H10.4828C9.71603 8.70964 8.99563 9.04555 8.47411 9.60466C7.95259 10.1638 7.67087 10.9022 7.68858 11.6637V19.3158C7.68858 21.3924 8.61034 22.6526 9.95916 22.9219C10.3777 23.0061 10.8099 22.9968 11.2244 22.8948C11.6389 22.7928 12.0252 22.6005 12.3555 22.3319C12.6857 22.0634 12.9516 21.7253 13.1337 21.3421C13.3158 20.959 13.4097 20.5405 13.4085 20.1169V11.5315C13.4091 11.156 13.3352 10.7842 13.191 10.4371C13.0467 10.0901 12.8349 9.77458 12.5677 9.50869C12.3006 9.24279 11.9832 9.0317 11.6337 8.88746C11.2843 8.74322 10.9096 8.66866 10.5312 8.66803Z" fill="#C9CDD0"/>
</svg>
