<svg width="23" height="23" viewBox="0 0 23 23" fill="none" xmlns="http://www.w3.org/2000/svg">
<path d="M9.16667 22H13.8333M19.6667 22V3.33333C19.6667 2.71449 19.4208 2.121 18.9832 1.68342C18.5457 1.24583 17.9522 1 17.3333 1H5.66667C5.04783 1 4.45434 1.24583 4.01675 1.68342C3.57917 2.121 3.33333 2.71449 3.33333 3.33333V22H19.6667ZM19.6667 22H22H19.6667ZM19.6667 22H13.8333H19.6667ZM3.33333 22H1H3.33333ZM3.33333 22H9.16667H3.33333ZM8 5.66667H9.16667H8ZM8 10.3333H9.16667H8ZM13.8333 5.66667H15H13.8333ZM13.8333 10.3333H15H13.8333ZM9.16667 22V16.1667C9.16667 15.8572 9.28958 15.5605 9.50838 15.3417C9.72717 15.1229 10.0239 15 10.3333 15H12.6667C12.9761 15 13.2728 15.1229 13.4916 15.3417C13.7104 15.5605 13.8333 15.8572 13.8333 16.1667V22H9.16667Z" stroke="black" stroke-width="2" stroke-linecap="round" stroke-linejoin="round"/>
</svg>
