<svg width="22" height="22" viewBox="0 0 22 22" fill="none" xmlns="http://www.w3.org/2000/svg">
<path d="M13.3311 22.0002H9.32708C9.07621 22.0002 8.83285 21.9145 8.63738 21.7572C8.44191 21.6 8.30606 21.3806 8.25238 21.1355L7.80467 19.0631C7.20743 18.8014 6.64112 18.4742 6.11616 18.0874L4.09545 18.7309C3.85626 18.8072 3.59819 18.7994 3.36407 18.7087C3.12996 18.6181 2.9339 18.4501 2.80844 18.2326L0.802024 14.7665C0.677883 14.5488 0.631284 14.2955 0.66985 14.0479C0.708416 13.8003 0.829864 13.5732 1.01433 13.4036L2.58184 11.9736C2.51055 11.3258 2.51055 10.6722 2.58184 10.0244L1.01433 8.59766C0.829603 8.42801 0.70799 8.20064 0.669417 7.95282C0.630845 7.70499 0.677602 7.45142 0.802024 7.23365L2.80404 3.76533C2.92949 3.54787 3.12556 3.37987 3.35967 3.28923C3.59379 3.19858 3.85186 3.19075 4.09105 3.26702L6.11176 3.91053C6.38016 3.71253 6.65956 3.52772 6.94777 3.36052C7.22607 3.20432 7.51207 3.06242 7.80467 2.93592L8.25348 0.865706C8.3069 0.620622 8.44249 0.401159 8.63776 0.243705C8.83303 0.0862514 9.07624 0.000263964 9.32708 0H13.3311C13.582 0.000263964 13.8252 0.0862514 14.0204 0.243705C14.2157 0.401159 14.3513 0.620622 14.4047 0.865706L14.8579 2.93702C15.4548 3.19871 16.0208 3.52596 16.5453 3.91273L18.5671 3.26922C18.8062 3.19323 19.064 3.20121 19.2979 3.29184C19.5318 3.38247 19.7276 3.55031 19.8531 3.76753L21.8551 7.23585C22.1103 7.68355 22.0223 8.25006 21.6428 8.59876L20.0753 10.0288C20.1465 10.6766 20.1465 11.3302 20.0753 11.978L21.6428 13.408C22.0223 13.7578 22.1103 14.3232 21.8551 14.7709L19.8531 18.2392C19.7276 18.4567 19.5315 18.6247 19.2974 18.7153C19.0633 18.806 18.8052 18.8138 18.566 18.7375L16.5453 18.094C16.0208 18.4805 15.4548 18.8074 14.8579 19.0686L14.4047 21.1355C14.3511 21.3804 14.2154 21.5996 14.0201 21.7569C13.8249 21.9141 13.5818 21.9999 13.3311 22.0002ZM6.51106 15.652L7.41307 16.312C7.61657 16.4616 7.82777 16.5991 8.04777 16.7245C8.25458 16.8444 8.46578 16.9522 8.68468 17.0501L9.71099 17.5L10.2137 19.8001H12.4467L12.9494 17.4989L13.9757 17.049C14.4234 16.851 14.8491 16.6057 15.244 16.3164L16.146 15.6564L18.3922 16.3714L19.5088 14.4376L17.7674 12.8503L17.8906 11.7371C17.9456 11.2498 17.9456 10.7581 17.8906 10.2719L17.7674 9.15866L19.5099 7.56805L18.3922 5.63314L16.1471 6.34814L15.244 5.68814C14.8489 5.3974 14.4237 5.14994 13.9757 4.95003L12.9494 4.50013L12.4467 2.20002H10.2137L9.70769 4.50123L8.68468 4.95003C8.23608 5.1465 7.8107 5.39221 7.41637 5.68264L6.51326 6.34264L4.26925 5.62764L3.15054 7.56805L4.89185 9.15316L4.76865 10.2675C4.71365 10.7548 4.71365 11.2465 4.76865 11.7327L4.89185 12.8459L3.15054 14.4332L4.26705 16.367L6.51106 15.652ZM11.3247 15.4001C10.1577 15.4001 9.03857 14.9365 8.21341 14.1114C7.38824 13.2862 6.92467 12.167 6.92467 11.0001C6.92467 9.83311 7.38824 8.71395 8.21341 7.88878C9.03857 7.06362 10.1577 6.60005 11.3247 6.60005C12.4917 6.60005 13.6108 7.06362 14.436 7.88878C15.2612 8.71395 15.7247 9.83311 15.7247 11.0001C15.7247 12.167 15.2612 13.2862 14.436 14.1114C13.6108 14.9365 12.4917 15.4001 11.3247 15.4001ZM11.3247 8.80006C10.8939 8.8005 10.4727 8.92741 10.1133 9.16506C9.75401 9.4027 9.47235 9.74062 9.30332 10.1369C9.13429 10.5331 9.08532 10.9703 9.16249 11.3942C9.23967 11.818 9.43958 12.2099 9.73743 12.5211C10.0353 12.8324 10.418 13.0493 10.838 13.1451C11.258 13.2408 11.6969 13.2111 12.1003 13.0597C12.5036 12.9083 12.8536 12.6417 13.1068 12.2932C13.36 11.9447 13.5053 11.5295 13.5247 11.0991V11.5391V11.0001C13.5247 10.4166 13.2929 9.85701 12.8803 9.44443C12.4678 9.03185 11.9082 8.80006 11.3247 8.80006Z" fill="#C9CDD0"/>
</svg>
