<svg width="21" height="21" viewBox="0 0 21 21" fill="none" xmlns="http://www.w3.org/2000/svg">
<path d="M16.5979 0.00018563C16.4595 0.00359471 16.3219 0.0220789 16.1875 0.0553103L1.96875 3.80028C1.40673 3.94908 0.909357 4.27883 0.553504 4.73859C0.197652 5.19835 0.00313002 5.76251 0 6.34388V18.375C0 19.8144 1.18563 21 2.625 21H18.375C19.8144 21 21 19.8144 21 18.375V7.00012C21 5.56076 19.8144 4.37515 18.375 4.37515H6.67188L16.625 1.75017V3.50015H18.375V1.75017C18.375 0.765804 17.5376 -0.0138142 16.5979 0.00018563ZM2.625 6.12513H18.375C18.8703 6.12513 19.25 6.50488 19.25 7.00012V18.375C19.25 18.8703 18.8703 19.25 18.375 19.25H2.625C2.12975 19.25 1.75 18.8703 1.75 18.375V7.00012C1.75 6.50488 2.12975 6.12513 2.625 6.12513ZM16.1875 11.3751C15.8394 11.3751 15.5056 11.5134 15.2594 11.7595C15.0133 12.0056 14.875 12.3395 14.875 12.6876C14.875 13.0357 15.0133 13.3695 15.2594 13.6156C15.5056 13.8618 15.8394 14.0001 16.1875 14.0001C16.5356 14.0001 16.8694 13.8618 17.1156 13.6156C17.3617 13.3695 17.5 13.0357 17.5 12.6876C17.5 12.3395 17.3617 12.0056 17.1156 11.7595C16.8694 11.5134 16.5356 11.3751 16.1875 11.3751Z" fill="#C9CDD0"/>
</svg>
